PathFileType	4	(X/Y/Z)	G:\マイドライブ\biomec\experimentalData\240725\SJ1.trc
DataRate	CameraRate	NumFrames	NumMarkers	Units	OrigDataRate	OrigDataStartFrame	OrigNumFrames
200.00	200.00	      4	52	mm	200.00	2006	      2292
Frame#	Time	handR			wrRI			wrRO			elbRI			elbRO			shRF			shRU			shRB			handL			wrLI			wrLO			elbLI			elbLO			shLF			shLU			shLB			toeR			baRI			baRO			heelR			anRI			anRO			knRI			knRO			troR			toeL			baLI			baLO			heelL			anLI			anLO			knLI			knLO			troL			head			earR			earL			clav			c7			ribR			ribL			xiph			ASISR			ASISL			PSISR			PSISL			t8			t11			L1			L3			LS			COX			
		X1	Y1	Z1	X2	Y2	Z2	X3	Y3	Z3	X4	Y4	Z4	X5	Y5	Z5	X6	Y6	Z6	X7	Y7	Z7	X8	Y8	Z8	X9	Y9	Z9	X10	Y10	Z10	X11	Y11	Z11	X12	Y12	Z12	X13	Y13	Z13	X14	Y14	Z14	X15	Y15	Z15	X16	Y16	Z16	X17	Y17	Z17	X18	Y18	Z18	X19	Y19	Z19	X20	Y20	Z20	X21	Y21	Z21	X22	Y22	Z22	X23	Y23	Z23	X24	Y24	Z24	X25	Y25	Z25	X26	Y26	Z26	X27	Y27	Z27	X28	Y28	Z28	X29	Y29	Z29	X30	Y30	Z30	X31	Y31	Z31	X32	Y32	Z32	X33	Y33	Z33	X34	Y34	Z34	X35	Y35	Z35	X36	Y36	Z36	X37	Y37	Z37	X38	Y38	Z38	X39	Y39	Z39	X40	Y40	Z40	X41	Y41	Z41	X42	Y42	Z42	X43	Y43	Z43	X44	Y44	Z44	X45	Y45	Z45	X46	Y46	Z46	X47	Y47	Z47	X48	Y48	Z48	X49	Y49	Z49	X50	Y50	Z50	X51	Y51	Z51	X52	Y52	Z52	

2006	10.025	207.53369	1434.87878	1037.59949	140.50517	1456.10303	1009.25842	171.46004	1511.08655	1043.52515	21.20700	1581.67798	1186.01465	-17.07215	1512.50464	1192.94434	193.98625	1405.51709	1393.29236	155.82886	1508.88574	1403.00134	157.41090	1450.79504	1430.35229	494.33072	1462.69556	1049.47131	557.43365	1499.53113	1017.34961	510.87363	1539.99792	1062.87012	665.23218	1626.70544	1190.09924	714.98828	1560.25793	1188.23828	511.48306	1427.93457	1386.46033	544.32556	1476.24536	1423.42224	524.26514	1542.71753	1388.63281	302.64798	1458.47766	52.03631	340.77310	1544.03906	38.82357	215.92476	1555.18518	42.90814	290.16138	1743.79309	44.74923	331.29407	1655.63464	121.95223	236.25897	1670.08582	106.57243	312.43729	1566.52930	474.66348	209.54604	1554.60876	468.41422	177.98230	1495.46057	864.64014	534.41547	1367.17419	43.76719	485.22925	1436.59534	56.76104	596.35297	1462.66748	59.16489	537.20453	1646.65417	96.77213	489.76880	1534.81946	162.66194	582.02271	1559.98145	148.52402	437.23495	1401.59778	488.93668	546.37701	1397.14355	503.36652	520.42865	1496.74963	878.12048	349.17972	1440.07471	1698.75024	275.28326	1363.47424	1542.13806	433.01038	1365.40527	1545.90930	356.33234	1394.44788	1373.05188	354.26505	1496.41943	1473.25098	246.36508	1442.50146	1090.60706	458.46130	1459.46863	1091.36462	355.12006	1389.06250	1214.09009	242.32184	1425.79224	956.13025	461.40344	1448.55566	977.18079	278.12067	1601.62366	998.30194	400.24600	1607.69531	1006.48730	344.42801	1598.41821	1276.42285	338.89783	1601.81287	1146.77087	340.72919	1596.66052	1085.93298	336.77295	1600.39490	1036.08667	339.69232	1615.68225	996.36389	347.27457	1641.90784	888.48523	
2007	10.030	207.36723	1435.99683	1037.38989	140.53195	1457.39648	1009.03497	171.60638	1512.16125	1043.37451	21.18907	1582.86169	1185.81030	-17.20720	1513.94397	1192.65076	193.72592	1406.69934	1393.31848	155.68123	1510.09412	1402.87964	156.95988	1451.88574	1430.26880	494.20346	1463.15161	1049.45715	557.32727	1500.10168	1017.30573	510.78635	1540.80676	1062.81958	665.01404	1627.36401	1190.07800	714.77338	1560.87488	1188.31360	511.35910	1428.58960	1386.55713	544.04541	1477.00391	1423.57056	524.19775	1543.52014	1388.75305	302.63397	1458.48474	52.09546	340.74417	1544.06494	38.83217	215.89488	1555.21008	42.85522	290.13449	1743.81067	44.69130	331.22070	1655.76770	121.94569	236.83925	1670.33289	105.58324	312.07111	1568.11499	474.74417	209.31946	1556.05286	468.71225	178.00278	1496.79919	864.68884	532.61798	1372.77405	43.85597	484.75824	1443.83398	56.49382	595.55524	1467.85999	59.27860	538.09131	1652.27820	96.48773	489.91223	1540.31641	162.68323	582.29468	1565.03333	148.55963	435.80499	1405.66052	488.01364	544.87323	1400.21619	502.39352	520.33118	1497.33887	877.92163	348.98215	1441.49658	1698.82874	274.93204	1364.57361	1542.23230	432.47989	1366.38708	1546.24158	355.89084	1395.55957	1373.14270	354.16013	1497.37378	1473.45679	246.29755	1443.68884	1090.52954	458.43668	1460.04517	1091.48071	354.87247	1390.14026	1214.34241	242.02937	1427.15283	956.06726	461.28751	1449.18774	977.08136	278.43716	1602.54675	998.32703	400.63422	1608.66479	1006.69080	344.38580	1599.32495	1276.51953	338.91422	1602.67224	1146.89941	340.91373	1597.62805	1086.09375	337.17438	1601.12061	1036.21436	339.87283	1616.63892	996.47058	347.46384	1642.90259	888.76984	
2008	10.035	207.15991	1437.33093	1037.24744	140.43903	1458.96204	1008.76221	171.71315	1513.36804	1043.22852	21.09207	1584.17627	1185.54346	-17.26255	1515.15369	1192.40637	193.34776	1407.94836	1393.26831	155.40324	1511.21094	1402.79578	156.79980	1453.40454	1429.98438	494.13547	1463.72253	1049.45166	557.25525	1500.76709	1017.32294	510.75723	1541.49060	1062.77698	664.94324	1627.82178	1190.06641	714.61749	1561.43030	1188.32471	511.17560	1429.30872	1386.70642	543.88422	1477.80664	1423.70093	524.10669	1544.33911	1388.93884	302.60147	1458.51709	52.15282	340.71997	1544.07361	38.86882	215.84056	1555.20972	42.81187	290.11777	1743.83252	44.64807	331.06509	1655.95361	121.92708	236.80603	1670.49158	105.48568	312.04816	1569.40393	475.06351	209.07530	1557.37390	468.93195	178.02576	1498.02466	864.75659	531.01782	1378.14355	43.98571	484.04034	1449.74976	56.49987	594.85504	1472.63928	59.37093	538.59210	1658.01794	97.50027	489.33405	1546.56104	162.71674	582.31073	1569.95117	148.75591	434.18011	1409.86108	486.90475	543.41815	1403.26587	501.42883	520.30859	1497.98218	877.76471	348.32477	1442.94250	1699.00818	274.33685	1366.05908	1542.48511	431.99271	1367.36023	1546.42285	355.50787	1396.71924	1373.28845	353.70892	1498.62207	1473.58936	246.26888	1444.64209	1090.48889	458.38840	1460.78650	1091.61060	354.71820	1391.02698	1214.39758	241.96626	1428.12976	956.05273	461.24744	1449.78979	977.01447	278.55060	1603.62073	998.65979	400.90833	1609.31030	1006.88806	344.40466	1600.36523	1276.70374	339.07114	1603.54187	1146.83423	341.04462	1598.56348	1086.17090	337.41516	1602.04260	1036.36023	340.29477	1617.63086	996.69330	347.78253	1643.82837	889.00000	
2009	10.040	207.34914	1438.67810	1036.95056	140.38960	1460.41772	1008.48169	171.89833	1514.46692	1043.02173	20.44313	1586.26270	1184.90149	-17.19779	1516.54480	1192.16467	192.99620	1409.21021	1393.27710	154.99229	1512.64148	1402.73340	156.55293	1454.50037	1429.90686	494.09305	1464.41565	1049.48206	557.23047	1501.34729	1017.37427	510.72318	1541.78931	1062.31311	664.92181	1628.54980	1190.15942	714.45099	1561.94604	1188.43518	510.86380	1430.34387	1386.82263	543.77216	1478.61646	1423.80103	523.96149	1545.10596	1389.02563	302.56244	1458.54663	52.21466	340.69495	1544.06580	38.91949	215.81284	1555.20959	42.79095	290.08383	1743.82678	44.61427	330.95535	1656.07690	121.94933	236.71649	1670.62415	105.46793	311.78815	1570.98474	475.16879	208.86850	1558.70251	469.14423	178.03978	1499.22021	864.81549	529.80396	1383.41748	43.98268	483.08160	1455.29492	56.51121	594.21790	1477.18250	59.46396	540.15509	1663.00513	96.56517	489.47763	1552.22668	162.41338	582.27228	1574.65698	148.54401	432.85904	1414.28955	485.91638	541.86328	1406.41895	500.29349	520.25360	1498.54504	877.52081	348.05331	1444.28857	1699.10181	273.85294	1367.35571	1542.66650	431.49289	1368.38171	1546.59924	355.26157	1397.55408	1373.37634	353.47678	1499.51892	1473.72607	246.04132	1446.00513	1090.42834	457.99072	1462.10608	1091.70728	354.39297	1392.01978	1214.51392	241.90440	1429.39392	956.05811	461.16016	1450.35974	976.95642	278.86563	1604.61548	998.71338	401.13757	1609.89417	1007.05011	344.51056	1601.31567	1276.71252	339.40436	1604.53406	1146.98999	341.25488	1599.40100	1086.31299	337.56708	1602.89551	1036.61658	340.56973	1618.26599	996.77588	348.05106	1644.87976	889.30792	
